<svg id="Layer_2" viewBox="0 0 512 512" xmlns="http://www.w3.org/2000/svg" xmlns:xlink="http://www.w3.org/1999/xlink" data-name="Layer 2"><linearGradient id="linear-gradient" gradientUnits="userSpaceOnUse" x1="29.29" x2="482.71" y1="29.29" y2="482.71"><stop offset="0" stop-color="#0bf"/><stop offset="1" stop-color="#0036ff"/></linearGradient><g id="Icon"><g id="_17" data-name="17"><rect fill="url(#linear-gradient)" height="512" rx="100" width="512"/><g fill="#fff"><path d="m403.46 317.47c-8.01-7.07-24.05-19.06-32.9-25.57-10.23-7.53-22.66-11.68-35-11.68s-23.61 3.92-33.19 11.32c-5.01 3.87-12 9.77-16.98 14.03-1.24 1.07-2.84 1.65-4.5 1.65-1.11 0-2.23-.27-3.23-.77-15.47-7.8-29.54-18-41.82-30.31-12.3-12.27-22.49-26.34-30.29-41.81-1.29-2.56-.95-5.6.88-7.73 6.21-7.25 10.93-12.96 14.03-16.98 15.26-19.76 15.12-47.17-.36-68.2-6.51-8.85-18.49-24.88-25.57-32.91-9.39-10.63-21.96-16.49-35.39-16.49-9.55 0-19.07 2.86-27.52 8.27-6.79 4.35-14.64 10.91-22.7 18.97-15.4 15.4-26.76 43.33-26.41 64.98.5 31.58 5.62 55.08 17.12 78.56 12.35 25.23 32.54 51.17 65.46 84.09s58.86 53.11 84.09 65.46c23.48 11.49 46.98 16.61 78.56 17.12h.97c21.78 0 48.7-11.11 64-26.42 8.06-8.06 14.62-15.91 18.97-22.7 11.33-17.7 13.18-44.02-8.22-62.92zm-.2 57.52c-3.56 5.56-9.38 12.78-17.62 21.02-14.01 14.01-39.38 23.78-57.74 23.48-54.69-.88-91.6-15.51-155.74-79.65s-78.78-101.05-79.65-155.74c-.29-18.36 9.48-43.74 23.48-57.74 8.24-8.24 15.46-14.06 21.02-17.62 14.72-9.42 35.31-10.26 50.03 6.41 6.73 7.63 18.41 23.25 25.01 32.21 11.94 16.23 13.79 38.95.5 56.16-3.66 4.74-9.25 11.37-13.71 16.58-4.47 5.22-5.31 12.61-2.21 18.74 8.33 16.5 19.22 31.47 32.16 44.38 12.91 12.94 27.88 23.83 44.38 32.16 6.14 3.09 13.52 2.26 18.74-2.21 5.21-4.46 11.85-10.05 16.58-13.71 17.2-13.29 39.93-11.45 56.16.5 8.96 6.6 24.59 18.28 32.21 25.01 16.67 14.72 15.84 35.31 6.41 50.03z"/><path d="m328.85 244.83c0 12.52 10.19 22.71 22.71 22.71s22.71-10.19 22.71-22.71c0-59.06-48.05-107.11-107.11-107.11-12.52 0-22.71 10.19-22.71 22.71s10.19 22.71 22.71 22.71c34.01 0 61.68 27.67 61.68 61.68zm-74.39-84.4c0-7.02 5.69-12.71 12.71-12.71 53.54 0 97.11 43.56 97.11 97.11 0 7.02-5.69 12.71-12.71 12.71s-12.71-5.69-12.71-12.71c0-39.53-32.16-71.68-71.68-71.68-7.02 0-12.71-5.69-12.71-12.71z"/><path d="m264.71 82.49c-12.52 0-22.71 10.19-22.71 22.71s10.19 22.71 22.71 22.71c65.83 0 119.38 53.55 119.38 119.38 0 12.52 10.19 22.71 22.71 22.71s22.71-10.19 22.71-22.71c0-90.87-73.93-164.8-164.8-164.8zm142.09 177.51c-7.02 0-12.71-5.69-12.71-12.71 0-71.34-58.04-129.38-129.38-129.38-7.02 0-12.71-5.69-12.71-12.71s5.69-12.71 12.71-12.71c85.36 0 154.8 69.44 154.8 154.8 0 7.02-5.69 12.71-12.71 12.71z"/></g></g></g></svg>